<?xml version="1.0" encoding="UTF-8"?>
<svg version="1.1" xmlns="http://www.w3.org/2000/svg" width="380" height="193">
<path d="M0 0 C125.4 0 250.8 0 380 0 C380 63.69 380 127.38 380 193 C254.6 193 129.2 193 0 193 C0 129.31 0 65.62 0 0 Z " fill="#0C0C0D" transform="translate(0,0)"/>
<path d="M0 0 C6.93 0 13.86 0 21 0 C21.33 0.66 21.66 1.32 22 2 C21.34 2 20.68 2 20 2 C22.99629628 12.13453155 26.44080066 22.05042002 30 32 C30 21.44 30 10.88 30 0 C36.6 0 43.2 0 50 0 C49.67 28.71 49.34 57.42 49 87 C43.06 87 37.12 87 31 87 C26.89633458 77.15120298 23.4938722 67.0784775 20 57 C19.67 66.9 19.34 76.8 19 87 C13.06 87 7.12 87 1 87 C0.67 58.29 0.34 29.58 0 0 Z " fill="#B7B7B8" transform="translate(132,15)"/>
<path d="M0 0 C1.12591553 0.00523682 2.25183105 0.01047363 3.41186523 0.01586914 C4.62680664 0.0190918 5.84174805 0.02231445 7.09350586 0.02563477 C8.37290039 0.03401367 9.65229492 0.04239258 10.97045898 0.05102539 C12.2537207 0.05553711 13.53698242 0.06004883 14.85913086 0.06469727 C18.04211921 0.07652994 21.22501661 0.09301471 24.40795898 0.11352539 C24.36574219 1.19947998 24.32352539 2.28543457 24.2800293 3.40429688 C24.2863432 8.89190445 25.37502299 14.09854404 26.45483398 19.46118164 C26.66730774 20.5495079 26.87978149 21.63783417 27.09869385 22.75914001 C27.77806811 26.23286339 28.46747289 29.70449532 29.15795898 33.17602539 C30.05212048 37.70788653 30.94220019 42.24053763 31.82983398 46.77368164 C32.047323 47.88409821 32.26481201 48.99451477 32.4888916 50.13858032 C33.97317961 57.76297319 35.3907536 65.39697192 36.73608398 73.04711914 C36.90662292 74.00658951 37.07716187 74.96605988 37.25286865 75.9546051 C37.40620667 76.84034714 37.55954468 77.72608917 37.7175293 78.63867188 C37.8516925 79.40984848 37.98585571 80.18102509 38.12408447 80.97557068 C38.40795898 83.11352539 38.40795898 83.11352539 38.40795898 87.11352539 C32.46795898 87.11352539 26.52795898 87.11352539 20.40795898 87.11352539 C19.74795898 83.15352539 19.08795898 79.19352539 18.40795898 75.11352539 C13.45795898 75.11352539 8.50795898 75.11352539 3.40795898 75.11352539 C2.74795898 79.07352539 2.08795898 83.03352539 1.40795898 87.11352539 C-4.53204102 87.11352539 -10.47204102 87.11352539 -16.59204102 87.11352539 C-15.84572066 79.11824835 -14.4169534 71.29056262 -12.93969727 63.40258789 C-12.67658788 61.9845401 -12.41377091 60.56643803 -12.15122986 59.14828491 C-11.46271999 55.43338882 -10.77040193 51.71921277 -10.07720947 48.00518799 C-9.37746705 44.25264875 -8.68112859 40.4994783 -7.98461914 36.74633789 C-7.19838933 32.51042138 -6.41186312 28.27456274 -5.62257385 24.03921509 C-4.26159272 16.73376021 -2.91313759 9.42630397 -1.59204102 2.11352539 C-2.25204102 1.78352539 -2.91204102 1.45352539 -3.59204102 1.11352539 C-2.59204102 0.11352539 -2.59204102 0.11352539 0 0 Z " fill="#B8B8BA" transform="translate(263.592041015625,14.886474609375)"/>
<path d="M0 0 C6.6 0 13.2 0 20 0 C20 10.56 20 21.12 20 32 C21.464375 27.978125 22.92875 23.95625 24.4375 19.8125 C25.12863892 17.92301636 25.12863892 17.92301636 25.83374023 15.99536133 C26.19669189 14.9927124 26.55964355 13.99006348 26.93359375 12.95703125 C27.30540771 11.93585205 27.67722168 10.91467285 28.06030273 9.86254883 C28.91952998 7.24513146 29.52753009 4.71071449 30 2 C29.34 1.67 28.68 1.34 28 1 C29 0 29 0 31.04125977 -0.11352539 C31.91580811 -0.10828857 32.79035645 -0.10305176 33.69140625 -0.09765625 C34.63564453 -0.09443359 35.57988281 -0.09121094 36.55273438 -0.08789062 C37.54595703 -0.07951172 38.53917969 -0.07113281 39.5625 -0.0625 C40.55958984 -0.05798828 41.55667969 -0.05347656 42.58398438 -0.04882812 C45.05604849 -0.03700007 47.52799518 -0.02051849 50 0 C48.3654674 6.80597747 46.2026774 13.25301069 43.625 19.75 C43.01521346 21.30713057 42.4058392 22.86442265 41.796875 24.421875 C40.92255206 26.65750935 40.0443738 28.89053116 39.14257812 31.11523438 C38.3577274 33.06700943 37.6126098 35.02997355 36.875 37 C36.43929687 38.11375 36.00359375 39.2275 35.5546875 40.375 C34.76308361 45.54829864 36.22752923 49.1506977 38 54 C38.42442383 55.21171875 38.84884766 56.4234375 39.28613281 57.671875 C40.98346582 62.5096394 42.72413245 67.33160799 44.46508789 72.15380859 C45.21240458 74.22661292 45.95596318 76.30073671 46.69921875 78.375 C47.14096436 79.59960938 47.58270996 80.82421875 48.0378418 82.0859375 C49 85 49 85 49 87 C43.06 87 37.12 87 31 87 C30.113125 84.64875 29.22625 82.2975 28.3125 79.875 C27.91091675 78.81321533 27.91091675 78.81321533 27.5012207 77.72998047 C24.91352147 70.84808951 22.47430813 63.92806277 20 57 C19.67 66.9 19.34 76.8 19 87 C13.06 87 7.12 87 1 87 C0.67 58.29 0.34 29.58 0 0 Z " fill="#AFAFB2" transform="translate(192,15)"/>
<path d="M0 0 C14.52 0 29.04 0 44 0 C43.67 6.93 43.34 13.86 43 21 C35.08 21 27.16 21 19 21 C19 25.62 19 30.24 19 35 C19.66 35 20.32 35 21 35 C21 34.34 21 33.68 21 33 C28.92 33 36.84 33 45 33 C45.33 33.66 45.66 34.32 46 35 C45.01 35.495 45.01 35.495 44 36 C43.67 41.94 43.34 47.88 43 54 C35.08 54 27.16 54 19 54 C19.33 58.29 19.66 62.58 20 67 C20.33 66.67 20.66 66.34 21 66 C22.63472882 65.91299658 24.27314055 65.89298937 25.91015625 65.90234375 C27.39418945 65.90717773 27.39418945 65.90717773 28.90820312 65.91210938 C29.94912109 65.92048828 30.99003906 65.92886719 32.0625 65.9375 C33.62967773 65.94426758 33.62967773 65.94426758 35.22851562 65.95117188 C37.81903454 65.96300073 40.40952422 65.98093681 43 66 C43 72.93 43 79.86 43 87 C29.14 87 15.28 87 1 87 C0.67 58.29 0.34 29.58 0 0 Z " fill="#AEADAF" transform="translate(78,15)"/>
<path d="M0 0 C6.93 0 13.86 0 21 0 C21 3 21 3 20 5 C20.312645 7.41005816 20.69438986 9.7556403 21.14453125 12.140625 C21.33930305 13.2185733 21.33930305 13.2185733 21.53800964 14.31829834 C21.95666745 16.63003993 22.38408025 18.94004934 22.8125 21.25 C23.36425987 24.2545628 23.91180234 27.25987062 24.45703125 30.265625 C24.59110382 30.99986694 24.72517639 31.73410889 24.86331177 32.49060059 C25.93942649 38.46230512 26.8015533 44.44511368 27.5769043 50.46386719 C27.73576874 52.92947246 27.73576874 52.92947246 29 54 C29.17128418 52.93676514 29.34256836 51.87353027 29.51904297 50.77807617 C30.16279179 46.78391904 30.80799708 42.78999825 31.45361328 38.79614258 C31.73134634 37.07680438 32.00869916 35.35740471 32.28564453 33.63793945 C32.68679247 31.14778101 33.08918143 28.65782711 33.4921875 26.16796875 C33.62244324 25.36116669 33.75269897 24.55436462 33.88690186 23.72311401 C34.72531791 18.56925094 35.63689147 13.43616445 36.67236328 8.31762695 C37.13997556 5.39995687 37.13997556 5.39995687 37 0 C43.6 0 50.2 0 57 0 C52.22187008 28.27712953 52.22187008 28.27712953 49.66992188 40.64257812 C47.72768864 50.15255677 46.00178677 59.70351842 44.25 69.25 C44.08920959 70.12606903 43.92841919 71.00213806 43.76275635 71.90475464 C42.83978154 76.93613038 41.9196048 81.96800522 41 87 C33.08 87 25.16 87 17 87 C15.69936669 83.09810008 14.66097975 79.77602545 13.91845703 75.81860352 C13.73131134 74.83219376 13.54416565 73.845784 13.35134888 72.82948303 C13.15548187 71.77329269 12.95961487 70.71710236 12.7578125 69.62890625 C12.54816864 68.51555405 12.33852478 67.40220184 12.12252808 66.25511169 C11.6785116 63.8926931 11.2365129 61.5298945 10.79638672 59.16674805 C10.1381544 55.63311761 9.47397913 52.10064905 8.80859375 48.56835938 C6.53588478 36.4651271 4.33029214 24.35273866 2.2492981 12.21498108 C2.09854828 11.33571457 1.94779846 10.45644806 1.79248047 9.55053711 C1.66275848 8.78857529 1.5330365 8.02661346 1.39938354 7.24156189 C0.96813726 4.82116861 0.4821537 2.41076851 0 0 Z " fill="#AFAFB1" transform="translate(17,15)"/>
<path d="M0 0 C18.81 0 37.62 0 57 0 C57.495 0.99 57.495 0.99 58 2 C57.01 2 56.02 2 55 2 C55 8.27 55 14.54 55 21 C49.06 21 43.12 21 37 21 C37 42.78 37 64.56 37 87 C31.06 87 25.12 87 19 87 C19 65.22 19 43.44 19 21 C13.06 21 7.12 21 1 21 C0.67 14.07 0.34 7.14 0 0 Z " fill="#BFBEBF" transform="translate(304,15)"/>
<path d="M0 0 C14.52 0 29.04 0 44 0 C43.67 6.93 43.34 13.86 43 21 C35.08 21 27.16 21 19 21 C19.15730882 25.71226584 19.15730882 25.71226584 19.36035156 30.42260742 C19.42097486 34.0428937 19.05725051 35.90951107 17.109375 38.98828125 C15 41 15 41 13 41 C12.34 42.32 11.68 43.64 11 45 C11.94875 45.144375 12.8975 45.28875 13.875 45.4375 C17 46 17 46 19 47 C18.34 47.99 17.68 48.98 17 50 C17.66 50.33 18.32 50.66 19 51 C12.48317631 57.87886945 12.48317631 57.87886945 7.4375 58.125 C6.633125 58.08375 5.82875 58.0425 5 58 C4.01 58 3.02 58 2 58 C0.71156795 55.4231359 0.83996567 53.51781241 0.79467773 50.63232422 C0.7647599 48.95080765 0.7647599 48.95080765 0.73423767 47.23532104 C0.71752518 46.02071198 0.70081268 44.80610291 0.68359375 43.5546875 C0.66281265 42.31453888 0.64203156 41.07439026 0.62062073 39.79666138 C0.56622295 36.49888177 0.51599905 33.2010728 0.46777344 29.90319824 C0.41754766 26.53827357 0.36192001 23.17343857 0.30664062 19.80859375 C0.19856521 13.20579771 0.09953136 6.60295256 0 0 Z " fill="#BCBCBE" transform="translate(78,15)"/>
<path d="M0 0 C0.33 0 0.66 0 1 0 C1.67272347 3.41550296 2.33711799 6.83257452 3 10.25 C3.19078125 11.21808594 3.3815625 12.18617187 3.578125 13.18359375 C3.84882813 14.58544922 3.84882813 14.58544922 4.125 16.015625 C4.29257812 16.87446289 4.46015625 17.73330078 4.6328125 18.61816406 C5 21 5 21 5 25 C1.04 25.495 1.04 25.495 -3 26 C-3.99 28.475 -3.99 28.475 -5 31 C-3.515 32.485 -3.515 32.485 -2 34 C-1.01 33.34 -0.02 32.68 1 32 C1.96679688 32.28617188 1.96679688 32.28617188 2.953125 32.578125 C3.62859375 32.71734375 4.3040625 32.8565625 5 33 C7.01721312 31.70265707 7.01721312 31.70265707 8.75 29.75 C9.36359375 29.12609375 9.9771875 28.5021875 10.609375 27.859375 C12.29946137 25.98657611 12.29946137 25.98657611 12 23 C11.01 23.66 10.02 24.32 9 25 C10.93617021 18.29787234 10.93617021 18.29787234 14 16 C14.66 16 15.32 16 16 16 C16.99 13.03 17.98 10.06 19 7 C19.33 7 19.66 7 20 7 C21.14428005 13.19212801 22.28304099 19.38525264 23.41796875 25.57910156 C23.80471798 27.6861062 24.19273057 29.79287935 24.58203125 31.89941406 C25.14134619 34.92713425 25.69611419 37.95565754 26.25 40.984375 C26.42499023 41.92617615 26.59998047 42.86797729 26.78027344 43.83831787 C26.94043945 44.71892883 27.10060547 45.59953979 27.265625 46.50683594 C27.47880371 47.66599518 27.47880371 47.66599518 27.69628906 48.84857178 C28 51 28 51 28 55 C22.06 55 16.12 55 10 55 C9.34 51.04 8.68 47.08 8 43 C3.05 43 -1.9 43 -7 43 C-7.66 46.96 -8.32 50.92 -9 55 C-14.94 55 -20.88 55 -27 55 C-26.24595285 46.55467195 -24.62171958 38.31258777 -23 30 C-22.34 30.66 -21.68 31.32 -21 32 C-19.10708851 30.28736579 -17.88958821 28.80427001 -16.625 26.5625 C-14.78994541 23.66876007 -12.7513881 22.00776969 -10 20 C-10.33 21.32 -10.66 22.64 -11 24 C-9.68 23.67 -8.36 23.34 -7 23 C-6.67 23.99 -6.34 24.98 -6 26 C-5.896875 25.360625 -5.79375 24.72125 -5.6875 24.0625 C-5.12463521 21.5551932 -4.42861344 19.34337066 -3.5625 16.9375 C-1.65959941 11.41535711 -0.82926287 5.76581594 0 0 Z M0 34 C-0.33 34.66 -0.66 35.32 -1 36 C-0.01 35.67 0.98 35.34 2 35 C1.34 34.67 0.68 34.34 0 34 Z " fill="#A7A6A9" transform="translate(274,47)"/>
<path d="M0 0 C0.66 0.66 1.32 1.32 2 2 C1.34 2 0.68 2 0 2 C0 1.34 0 0.68 0 0 Z M-3 1 C-2.01 1.33 -1.02 1.66 0 2 C0 2.99 0 3.98 0 5 C-1.65 4.67 -3.3 4.34 -5 4 C-4.34 3.01 -3.68 2.02 -3 1 Z M5 1 C5.66 1.33 6.32 1.66 7 2 C6.34 4.31 5.68 6.62 5 9 C6.65 8.34 8.3 7.68 10 7 C10 20.2 10 33.4 10 47 C4.06 47 -1.88 47 -8 47 C-11.4113687 38.78744571 -14.25077862 30.45047555 -17 22 C-16.01 22 -15.02 22 -14 22 C-13.855625 21.195625 -13.71125 20.39125 -13.5625 19.5625 C-13 17 -13 17 -12 16 C-12.04125 15.071875 -12.0825 14.14375 -12.125 13.1875 C-11.98664517 9.65945176 -11.46162101 8.46162101 -9 6 C-8.34 6 -7.68 6 -7 6 C-7 5.34 -7 4.68 -7 4 C-6.34 4 -5.68 4 -5 4 C-5.33 5.65 -5.66 7.3 -6 9 C-3.087425 8.91433603 -1.43201976 8.42089045 0.66796875 6.375 C2.16091772 4.61608625 3.60436262 2.83686981 5 1 Z " fill="#A8A7A9" transform="translate(171,55)"/>
<path d="M0 0 C0.66 0.99 1.32 1.98 2 3 C2.33 2.34 2.66 1.68 3 1 C3 1.66 3 2.32 3 3 C3.66 3 4.32 3 5 3 C5.33 2.34 5.66 1.68 6 1 C6.66 0.67 7.32 0.34 8 0 C8.33 0.66 8.66 1.32 9 2 C10.32 1.34 11.64 0.68 13 0 C14.06775224 1.96466413 15.06553465 3.96855359 16 6 C15.67 6.66 15.34 7.32 15 8 C15.99 7.67 16.98 7.34 18 7 C17.34 8.65 16.68 10.3 16 12 C15.01 12 14.02 12 13 12 C13.33 13.65 13.66 15.3 14 17 C13.34 16.67 12.68 16.34 12 16 C11.67 25.9 11.34 35.8 11 46 C5.06 46 -0.88 46 -7 46 C-7 32.8 -7 19.6 -7 6 C-6.34 6 -5.68 6 -5 6 C-4.67 5.01 -4.34 4.02 -4 3 C-3.34 3 -2.68 3 -2 3 C-2 2.34 -2 1.68 -2 1 C-1.34 0.67 -0.68 0.34 0 0 Z " fill="#ABACAD" transform="translate(140,56)"/>
<path d="M0 0 C0.75 1.625 0.75 1.625 1 4 C-0.9375 7.25 -0.9375 7.25 -3 10 C-1.35 9.34 0.3 8.68 2 8 C0.68 10.64 -0.64 13.28 -2 16 C-0.35 15.34 1.3 14.68 3 14 C4 15 4 15 4.11352539 18.78540039 C4.11336622 20.47282729 4.10766917 22.16025905 4.09765625 23.84765625 C4.0962413 24.7340831 4.09482635 25.62050995 4.09336853 26.53379822 C4.08775215 29.37673254 4.07519691 32.21958931 4.0625 35.0625 C4.05748711 36.98502491 4.05292384 38.90755104 4.04882812 40.83007812 C4.03862648 45.55343964 4.01905437 50.27663258 4 55 C-1.94 55 -7.88 55 -14 55 C-14.11503185 50.2479063 -14.21447713 45.50066981 -14.2746582 40.74829102 C-14.29974959 39.13321539 -14.33383126 37.51825274 -14.37719727 35.90356445 C-14.43809286 33.57735294 -14.46626124 31.25264641 -14.48828125 28.92578125 C-14.51408768 28.20787918 -14.5398941 27.48997711 -14.56648254 26.75032043 C-14.56871713 22.72482678 -14.18860002 21.21424494 -11.48632812 18.14453125 C-10.66583984 17.43683594 -9.84535156 16.72914062 -9 16 C-8.60729556 13.77720236 -8.60729556 13.77720236 -9.1875 11.6875 C-9.455625 10.470625 -9.72375 9.25375 -10 8 C-9.01 8.33 -8.02 8.66 -7 9 C-6.773125 8.443125 -6.54625 7.88625 -6.3125 7.3125 C-4.64103234 4.36753316 -2.44723648 2.31843456 0 0 Z " fill="#ADABB0" transform="translate(337,47)"/>
<path d="M0 0 C6.6 0 13.2 0 20 0 C19.67 10.56 19.34 21.12 19 32 C18.34 32 17.68 32 17 32 C16.90847656 32.58265625 16.81695312 33.1653125 16.72265625 33.765625 C15.82798931 36.53183847 14.53835231 37.76373964 12.4375 39.75 C11.79683594 40.36359375 11.15617188 40.9771875 10.49609375 41.609375 C9.75552734 42.29773437 9.75552734 42.29773437 9 43 C8.401875 42.67 7.80375 42.34 7.1875 42 C4.94613529 40.79212012 4.94613529 40.79212012 2 41 C0.85192189 36.8538727 0.77423761 32.79322882 0.68359375 28.515625 C0.66281265 27.70003113 0.64203156 26.88443726 0.62062073 26.04412842 C0.55538703 23.44616895 0.49636232 20.84811087 0.4375 18.25 C0.39428986 16.485667 0.35067478 14.72134387 0.30664062 12.95703125 C0.19897257 8.63812032 0.0997049 4.31913146 0 0 Z " fill="#BCBEBE" transform="translate(192,15)"/>
<path d="M0 0 C0.33 0 0.66 0 1 0 C1.67272347 3.41550296 2.33711799 6.83257452 3 10.25 C3.19078125 11.21808594 3.3815625 12.18617187 3.578125 13.18359375 C3.84882813 14.58544922 3.84882813 14.58544922 4.125 16.015625 C4.29257812 16.87446289 4.46015625 17.73330078 4.6328125 18.61816406 C5 21 5 21 5 25 C1.04 25.495 1.04 25.495 -3 26 C-3.99 28.475 -3.99 28.475 -5 31 C-3.515 32.485 -3.515 32.485 -2 34 C-1.01 33.34 -0.02 32.68 1 32 C1.33 32.66 1.66 33.32 2 34 C1.01 34.495 1.01 34.495 0 35 C-0.474375 35.845625 -0.94875 36.69125 -1.4375 37.5625 C-1.953125 38.366875 -2.46875 39.17125 -3 40 C-3.99 40 -4.98 40 -6 40 C-6.33 40.33 -6.66 40.66 -7 41 C-5.35 41.33 -3.7 41.66 -2 42 C-2 42.33 -2 42.66 -2 43 C-3.65 43 -5.3 43 -7 43 C-7.66 46.96 -8.32 50.92 -9 55 C-14.94 55 -20.88 55 -27 55 C-26.24595285 46.55467195 -24.62171958 38.31258777 -23 30 C-22.34 30.66 -21.68 31.32 -21 32 C-19.10708851 30.28736579 -17.88958821 28.80427001 -16.625 26.5625 C-14.78994541 23.66876007 -12.7513881 22.00776969 -10 20 C-10.33 21.32 -10.66 22.64 -11 24 C-9.68 23.67 -8.36 23.34 -7 23 C-6.67 23.99 -6.34 24.98 -6 26 C-5.896875 25.360625 -5.79375 24.72125 -5.6875 24.0625 C-5.12463521 21.5551932 -4.42861344 19.34337066 -3.5625 16.9375 C-1.65959941 11.41535711 -0.82926287 5.76581594 0 0 Z " fill="#A1A0A2" transform="translate(274,47)"/>
<path d="M0 0 C0.91644287 0.00523682 1.83288574 0.01047363 2.77709961 0.01586914 C4.26113281 0.02070312 4.26113281 0.02070312 5.77514648 0.02563477 C6.81606445 0.03401367 7.85698242 0.04239258 8.92944336 0.05102539 C10.49662109 0.05779297 10.49662109 0.05779297 12.09545898 0.06469727 C14.6859779 0.07652612 17.27646758 0.0944622 19.86694336 0.11352539 C19.86694336 7.04352539 19.86694336 13.97352539 19.86694336 21.11352539 C6.00694336 21.11352539 -7.85305664 21.11352539 -22.13305664 21.11352539 C-20.81305664 20.78352539 -19.49305664 20.45352539 -18.13305664 20.11352539 C-16.8486893 18.12974869 -16.8486893 18.12974869 -16.13305664 16.11352539 C-15.47305664 16.11352539 -14.81305664 16.11352539 -14.13305664 16.11352539 C-13.90618164 15.39165039 -13.67930664 14.66977539 -13.44555664 13.92602539 C-11.86970536 10.54920122 -9.92429048 8.555855 -7.13305664 6.11352539 C-6.47305664 6.11352539 -5.81305664 6.11352539 -5.13305664 6.11352539 C-4.82368164 5.30915039 -4.51430664 4.50477539 -4.19555664 3.67602539 C-2.73163163 0.14538271 -2.73163163 0.14538271 0 0 Z " fill="#A1A0A3" transform="translate(101.133056640625,80.886474609375)"/>
<path d="M0 0 C6.6 0 13.2 0 20 0 C19.67 11.22 19.34 22.44 19 34 C17.68 34.66 16.36 35.32 15 36 C14.505 34.515 14.505 34.515 14 33 C12.741875 33.12375 11.48375 33.2475 10.1875 33.375 C9.12595703 33.47941406 9.12595703 33.47941406 8.04296875 33.5859375 C5.70011858 33.92665391 5.70011858 33.92665391 3 36 C2.505 34.515 2.505 34.515 2 33 C1.67 32.67 1.34 32.34 1 32 C0.84028023 29.62661361 0.7407567 27.27881728 0.68359375 24.90234375 C0.66281265 24.19348526 0.64203156 23.48462677 0.62062073 22.75428772 C0.55505402 20.48212695 0.4962077 18.20984736 0.4375 15.9375 C0.39432151 14.40037817 0.35070745 12.8632685 0.30664062 11.32617188 C0.19854266 7.55090144 0.09952363 3.77554534 0 0 Z " fill="#C1BFC1" transform="translate(162,15)"/>
<path d="M0 0 C6.6 0 13.2 0 20 0 C19.30764434 4.05705085 18.61435981 8.11392596 17.91870117 12.17041016 C17.68247642 13.54954823 17.4467935 14.92877923 17.21166992 16.30810547 C16.87301874 18.29419082 16.53223748 20.2799126 16.19140625 22.265625 C15.88505249 24.05661621 15.88505249 24.05661621 15.57250977 25.88378906 C15.13001961 28.29229412 14.63663747 30.63753805 14 33 C13.34 33 12.68 33 12 33 C12 34.65 12 36.3 12 38 C11.34 38 10.68 38 10 38 C9.67 38.66 9.34 39.32 9 40 C9 39.01 9 38.02 9 37 C8.34742127 35.327767 7.68132451 33.66072849 7 32 C7 31.34 7 30.68 7 30 C6.01 31.32 5.02 32.64 4 34 C0.72730072 33.4357415 -1.00897411 32.69881833 -3 30 C-3.14453125 27.25 -3.14453125 27.25 -2.8125 24 C-2.69648437 22.84371094 -2.58046875 21.68742187 -2.4609375 20.49609375 C-1.93028019 16.47119299 -1.24322904 12.50634443 -0.40234375 8.53515625 C0.15674398 5.44017487 0.15674398 5.44017487 0 0 Z " fill="#BEBEBE" transform="translate(54,15)"/>
<path d="M0 0 C0.87454834 0.00523682 1.74909668 0.01047363 2.65014648 0.01586914 C3.59438477 0.0190918 4.53862305 0.02231445 5.51147461 0.02563477 C6.50469727 0.03401367 7.49791992 0.04239258 8.52124023 0.05102539 C9.51833008 0.05553711 10.51541992 0.06004883 11.54272461 0.06469727 C14.01478872 0.07652532 16.48673541 0.0930069 18.95874023 0.11352539 C17.25980987 7.18894881 15.00220986 13.9521041 12.39624023 20.73852539 C12.09129639 21.54467285 11.78635254 22.35082031 11.47216797 23.18139648 C9.20170468 28.99204317 9.20170468 28.99204317 6.95874023 30.11352539 C6.95874023 29.45352539 6.95874023 28.79352539 6.95874023 28.11352539 C5.63874023 28.11352539 4.31874023 28.11352539 2.95874023 28.11352539 C2.29874023 27.45352539 1.63874023 26.79352539 0.95874023 26.11352539 C-2.75635239 27.3518896 -4.33008841 29.33457475 -7.04125977 32.11352539 C-8.03125977 32.77352539 -9.02125977 33.43352539 -10.04125977 34.11352539 C-9.5108678 27.71198898 -7.88374243 22.38571521 -5.54125977 16.42602539 C-2.74599658 9.42932074 -2.74599658 9.42932074 -1.04125977 2.11352539 C-1.70125977 1.78352539 -2.36125977 1.45352539 -3.04125977 1.11352539 C-2.04125977 0.11352539 -2.04125977 0.11352539 0 0 Z " fill="#B9BABB" transform="translate(223.041259765625,14.886474609375)"/>
<path d="M0 0 C1.98362069 2.91708924 1.9876191 4.12380904 1.625 7.75 C1.315625 9.35875 1.315625 9.35875 1 11 C0.34 11 -0.32 11 -1 11 C-1.19335938 12.05960938 -1.38671875 13.11921875 -1.5859375 14.2109375 C-1.84855064 15.59903553 -2.11159386 16.98705224 -2.375 18.375 C-2.50132812 19.07367188 -2.62765625 19.77234375 -2.7578125 20.4921875 C-3.7734375 25.7734375 -3.7734375 25.7734375 -6 28 C-6.64767793 30.57061311 -6.64767793 30.57061311 -7 33 C-7.66 32.34 -8.32 31.68 -9 31 C-9.99 30.67 -10.98 30.34 -12 30 C-12 29.01 -12 28.02 -12 27 C-15.31010611 30.13118145 -17.72485076 33.07019678 -20 37 C-20.98049329 38.01913341 -21.97766216 39.02284836 -23 40 C-23.35250799 31.90112887 -22.0031424 24.37977945 -20.5 16.4375 C-20.26152344 15.14263672 -20.02304688 13.84777344 -19.77734375 12.51367188 C-19.19199082 9.34105899 -18.59937427 6.16998847 -18 3 C-16.5393715 5.64738916 -16 6.89448334 -16 10 C-15.236875 9.195625 -14.47375 8.39125 -13.6875 7.5625 C-11 5 -11 5 -8 4 C-8 3.34 -8 2.68 -8 2 C-6.125 1.375 -6.125 1.375 -4 1 C-3.34 1.66 -2.68 2.32 -2 3 C-1.34 2.01 -0.68 1.02 0 0 Z " fill="#B1B1B4" transform="translate(275,41)"/>
<path d="M0 0 C0.66 0.33 1.32 0.66 2 1 C1.95875 1.763125 1.9175 2.52625 1.875 3.3125 C1.77919176 6.22718416 1.77919176 6.22718416 4 9 C4.66 8.01 5.32 7.02 6 6 C6.66 5.67 7.32 5.34 8 5 C9.50514646 9.12314058 11.00324372 13.24880702 12.5 17.375 C12.92925781 18.550625 13.35851562 19.72625 13.80078125 20.9375 C14.20683594 22.05898437 14.61289063 23.18046875 15.03125 24.3359375 C15.40830078 25.37282715 15.78535156 26.4097168 16.17382812 27.47802734 C17 30 17 30 17 32 C11.06 32 5.12 32 -1 32 C-1.94875 29.48375 -2.8975 26.9675 -3.875 24.375 C-4.17003418 23.59431152 -4.46506836 22.81362305 -4.76904297 22.00927734 C-6.26461273 18.03152631 -7.68644943 14.04267505 -9 10 C-8.34 10 -7.68 10 -7 10 C-5.71050833 8.20473889 -5.71050833 8.20473889 -4.5 6 C-3.21875 3.75 -3.21875 3.75 -2 2 C-1.34 2 -0.68 2 0 2 C0 1.34 0 0.68 0 0 Z " fill="#A7A5A9" transform="translate(224,70)"/>
<path d="M0 0 C6.93 0 13.86 0 21 0 C21.33 0.66 21.66 1.32 22 2 C21.34 2 20.68 2 20 2 C20.41572266 3.18142578 20.41572266 3.18142578 20.83984375 4.38671875 C23.4771305 12.31734972 24.72680794 19.65398264 25 28 C23.68 28 22.36 28 21 28 C21.875 21.25 21.875 21.25 23 19 C22.4225 18.773125 21.845 18.54625 21.25 18.3125 C18.4336339 16.66961977 16.91922886 14.60466773 15 12 C12.69 14.64 10.38 17.28 8 20 C8.66 20 9.32 20 10 20 C10 20.66 10 21.32 10 22 C8.576875 22.680625 8.576875 22.680625 7.125 23.375 C3.99686321 24.80238254 3.99686321 24.80238254 2 27 C0.22509454 25.22509454 0.76500027 22.62215098 0.68359375 20.21484375 C0.62075195 18.46010742 0.62075195 18.46010742 0.55664062 16.66992188 C0.51732422 15.43822266 0.47800781 14.20652344 0.4375 12.9375 C0.39431641 11.70193359 0.35113281 10.46636719 0.30664062 9.19335938 C0.20015889 6.12905159 0.09953935 3.06454115 0 0 Z " fill="#C1C2C2" transform="translate(132,15)"/>
<path d="M0 0 C0.33 0 0.66 0 1 0 C1.33 2.97 1.66 5.94 2 9 C4.66735273 6.51047079 6.55746343 4.36591866 8 1 C10.64 1.66 13.28 2.32 16 3 C16.33 2.01 16.66 1.02 17 0 C17.33 0 17.66 0 18 0 C18 7.26 18 14.52 18 22 C12.06 22 6.12 22 0 22 C0 14.74 0 7.48 0 0 Z " fill="#A6A6AA" transform="translate(193,80)"/>
<path d="M0 0 C3.63 0 7.26 0 11 0 C11 5.94 11 11.88 11 18 C6.606875 18.0309375 6.606875 18.0309375 2.125 18.0625 C0.74272217 18.07615601 0.74272217 18.07615601 -0.66748047 18.09008789 C-1.75633545 18.09383423 -1.75633545 18.09383423 -2.8671875 18.09765625 C-3.98262939 18.10551147 -3.98262939 18.10551147 -5.12060547 18.11352539 C-7 18 -7 18 -9 17 C-9 15.35 -9 13.7 -9 12 C-9.99 11.67 -10.98 11.34 -12 11 C-11.01 10.67 -10.02 10.34 -9 10 C-8.87625 9.401875 -8.7525 8.80375 -8.625 8.1875 C-7.69254467 4.92390634 -5.78803691 3.79230944 -3 2 C-2.01 2.33 -1.02 2.66 0 3 C0 2.01 0 1.02 0 0 Z " fill="#BDBEC0" transform="translate(348,18)"/>
<path d="M0 0 C0.33 0.66 0.66 1.32 1 2 C2.32 1.67 3.64 1.34 5 1 C5.0810206 3.10353495 5.13919907 5.20795952 5.1875 7.3125 C5.22230469 8.48425781 5.25710937 9.65601563 5.29296875 10.86328125 C5 14 5 14 3.48828125 15.91796875 C2.99714844 16.27503906 2.50601563 16.63210937 2 17 C1.34 16.67 0.68 16.34 0 16 C0.33 13.69 0.66 11.38 1 9 C-0.11375 10.175625 -0.11375 10.175625 -1.25 11.375 C-3.5841217 13.60302526 -5.16195196 14.68233484 -8 16 C-8.33 16.66 -8.66 17.32 -9 18 C-9 17.34 -9 16.68 -9 16 C-9.66 16 -10.32 16 -11 16 C-10.67 14.35 -10.34 12.7 -10 11 C-10.66 11 -11.32 11 -12 11 C-12 11.66 -12 12.32 -12 13 C-12.66 13 -13.32 13 -14 13 C-15.21481173 15.65740067 -16 17.61715524 -16 20.5625 C-16 23.31612665 -16.65977663 24.63489993 -18 27 C-18.33 27.99 -18.66 28.98 -19 30 C-19.99 29.67 -20.98 29.34 -22 29 C-23 22.25 -23 22.25 -23 20 C-22.01 20 -21.02 20 -20 20 C-19.67 18.68 -19.34 17.36 -19 16 C-19.66 16 -20.32 16 -21 16 C-21.144375 15.21625 -21.28875 14.4325 -21.4375 13.625 C-21.87798925 11.03578982 -21.87798925 11.03578982 -23 9 C-21.02 9.66 -19.04 10.32 -17 11 C-16.443125 9.9275 -15.88625 8.855 -15.3125 7.75 C-11.29329333 0.84592722 -7.72344488 -0.52362338 0 0 Z M-5 7 C-5 7.66 -5 8.32 -5 9 C-4.34 8.67 -3.68 8.34 -3 8 C-3.66 7.67 -4.32 7.34 -5 7 Z M-8 8 C-8.99 9.485 -8.99 9.485 -10 11 C-7.525 11.495 -7.525 11.495 -5 12 C-5 11.01 -5 10.02 -5 9 C-5.99 8.67 -6.98 8.34 -8 8 Z " fill="#B0ADB0" transform="translate(176,48)"/>
<path d="M0 0 C0.66 0 1.32 0 2 0 C2.66 3.96 3.32 7.92 4 12 C4.66 12 5.32 12 6 12 C6 15.63 6 19.26 6 23 C0.06 23 -5.88 23 -12 23 C-12 18 -12 18 -10 15.6875 C-9.01 14.8521875 -9.01 14.8521875 -8 14 C-8.66 13.67 -9.32 13.34 -10 13 C-9.34 12.01 -8.68 11.02 -8 10 C-7.75944532 7.94290404 -7.75944532 7.94290404 -7.875 5.8125 C-7.936875 3.9253125 -7.936875 3.9253125 -8 2 C-5.50935112 1.31292445 -3.62113708 1 -1 1 C-0.67 0.67 -0.34 0.34 0 0 Z " fill="#A2A1A5" transform="translate(145,79)"/>
<path d="M0 0 C0.33 0 0.66 0 1 0 C1.67272347 3.41550296 2.33711799 6.83257452 3 10.25 C3.19078125 11.21808594 3.3815625 12.18617187 3.578125 13.18359375 C3.84882813 14.58544922 3.84882813 14.58544922 4.125 16.015625 C4.29257812 16.87446289 4.46015625 17.73330078 4.6328125 18.61816406 C5 21 5 21 5 25 C1.04 25.495 1.04 25.495 -3 26 C-4.49821059 29.37097383 -5 31.20442119 -5 35 C-6.32 35.66 -7.64 36.32 -9 37 C-9 36.34 -9 35.68 -9 35 C-9.66 35 -10.32 35 -11 35 C-11 33.68 -11 32.36 -11 31 C-11.61875 31.495 -12.2375 31.99 -12.875 32.5 C-15 34 -15 34 -17 34 C-17.33 34.66 -17.66 35.32 -18 36 C-18.99 35.67 -19.98 35.34 -21 35 C-20.38554825 31.69084419 -19.21831218 29.60583297 -17.1875 26.9375 C-16.68605469 26.26589844 -16.18460937 25.59429687 -15.66796875 24.90234375 C-13.94146972 22.93324532 -12.1439676 21.49287115 -10 20 C-10.33 21.32 -10.66 22.64 -11 24 C-9.68 23.67 -8.36 23.34 -7 23 C-6.67 23.99 -6.34 24.98 -6 26 C-5.896875 25.360625 -5.79375 24.72125 -5.6875 24.0625 C-5.12463521 21.5551932 -4.42861344 19.34337066 -3.5625 16.9375 C-1.65959941 11.41535711 -0.82926287 5.76581594 0 0 Z " fill="#A8A7AA" transform="translate(274,47)"/>
<path d="M0 0 C1.875 0.3125 1.875 0.3125 4 1 C6.58110217 4.87165325 5.72948337 6.54204609 5 11 C5.33 11.66 5.66 12.32 6 13 C7.32 12.01 8.64 11.02 10 10 C10 13.96 10 17.92 10 22 C4.06 22 -1.88 22 -8 22 C-7.01 21.34 -6.02 20.68 -5 20 C-4.33652369 17.51599015 -4.33652369 17.51599015 -4 15 C-3.67 14.34 -3.34 13.68 -3 13 C-3.66 13 -4.32 13 -5 13 C-4.67 10.03 -4.34 7.06 -4 4 C-3.34 4 -2.68 4 -2 4 C-1.34 2.68 -0.68 1.36 0 0 Z " fill="#A4A3A6" transform="translate(331,80)"/>
<path d="M0 0 C0.87454834 0.00523682 1.74909668 0.01047363 2.65014648 0.01586914 C3.59438477 0.0190918 4.53862305 0.02231445 5.51147461 0.02563477 C6.50469727 0.03401367 7.49791992 0.04239258 8.52124023 0.05102539 C9.51833008 0.05553711 10.51541992 0.06004883 11.54272461 0.06469727 C14.01478872 0.07652532 16.48673541 0.0930069 18.95874023 0.11352539 C18.50579159 1.86492682 18.04615275 3.61459883 17.58374023 5.36352539 C17.20088867 6.82532227 17.20088867 6.82532227 16.81030273 8.31665039 C16.06275515 10.77189842 15.18750206 12.86969944 13.95874023 15.11352539 C13.21624023 14.86602539 12.47374023 14.61852539 11.70874023 14.36352539 C10.80124023 14.28102539 9.89374023 14.19852539 8.95874023 14.11352539 C6.62419363 15.94710874 6.62419363 15.94710874 4.95874023 18.11352539 C2.95874023 14.36352539 2.95874023 14.36352539 2.95874023 12.11352539 C2.29874023 11.12352539 1.63874023 10.13352539 0.95874023 9.11352539 C-0.03125977 9.11352539 -1.02125977 9.11352539 -2.04125977 9.11352539 C-1.71125977 6.80352539 -1.38125977 4.49352539 -1.04125977 2.11352539 C-1.70125977 1.78352539 -2.36125977 1.45352539 -3.04125977 1.11352539 C-2.04125977 0.11352539 -2.04125977 0.11352539 0 0 Z " fill="#BFC1C0" transform="translate(223.041259765625,14.886474609375)"/>
<path d="M0 0 C0.33 0 0.66 0 1 0 C1.66 5.28 2.32 10.56 3 16 C-2.94 16 -8.88 16 -15 16 C-15.33 12.7 -15.66 9.4 -16 6 C-15.01 7.32 -14.02 8.64 -13 10 C-12.67 9.01 -12.34 8.02 -12 7 C-9.9375 6.3125 -9.9375 6.3125 -8 6 C-8 6.66 -8 7.32 -8 8 C-2.89386809 4.97263027 -2.89386809 4.97263027 0 0 Z " fill="#A2A2A3" transform="translate(299,86)"/>
<path d="M0 0 C18.81 0 37.62 0 57 0 C57.495 0.99 57.495 0.99 58 2 C54.94655415 3.01781528 52.89716208 3.12097241 49.70239258 3.11352539 C48.62149857 3.11344986 47.54060455 3.11337433 46.42695618 3.11329651 C45.26125595 3.10813522 44.09555573 3.10297394 42.89453125 3.09765625 C41.70018967 3.0962413 40.50584808 3.09482635 39.27531433 3.09336853 C35.45435092 3.0877635 31.63344575 3.07521011 27.8125 3.0625 C25.22461022 3.05748565 22.63671952 3.05292263 20.04882812 3.04882812 C13.69919882 3.03779243 7.34960357 3.02104936 1 3 C0.67 2.01 0.34 1.02 0 0 Z " fill="#9A999A" transform="translate(304,15)"/>
<path d="M0 0 C2.2109885 0.42793326 3.98119242 0.99059621 6 2 C6 2.66 6 3.32 6 4 C7.32 3.01 8.64 2.02 10 1 C10.08086376 3.93804996 10.1404283 6.87388075 10.1875 9.8125 C10.21263672 10.64587891 10.23777344 11.47925781 10.26367188 12.33789062 C10.27333984 13.14033203 10.28300781 13.94277344 10.29296875 14.76953125 C10.3086792 15.50792236 10.32438965 16.24631348 10.34057617 17.00708008 C9.9047656 19.55727485 9.02623737 20.44175849 7 22 C6.34 22 5.68 22 5 22 C4.67 21.34 4.34 20.68 4 20 C3.34 19.67 2.68 19.34 2 19 C2.474375 18.46375 2.94875 17.9275 3.4375 17.375 C5.33318053 14.49356559 5.78556233 12.43100266 6 9 C5.03394425 6.25045672 4.61984486 5.30992243 2 4 C2 4.66 2 5.32 2 6 C1.34 6 0.68 6 0 6 C-0.2475 6.680625 -0.495 7.36125 -0.75 8.0625 C-2.24197908 11.56865083 -4.06835511 14.71620368 -6 18 C-6.66 18 -7.32 18 -8 18 C-8.34846708 12.68587703 -8.34846708 12.68587703 -8 10 C-6.1875 8.375 -6.1875 8.375 -4 7 C-2.93753473 5.03247172 -1.92862192 3.03412421 -1 1 C-0.67 0.67 -0.34 0.34 0 0 Z " fill="#BFC0C0" transform="translate(201,23)"/>
<path d="M0 0 C1.98 0 3.96 0 6 0 C5.35588614 5.55313696 4.49942196 11.01255636 3.4375 16.5 C3.29892578 17.22703125 3.16035156 17.9540625 3.01757812 18.703125 C2.68063335 20.46918037 2.34064317 22.23465426 2 24 C1.34 23.34 0.68 22.68 0 22 C-0.66 22.99 -1.32 23.98 -2 25 C-2.99 23.35 -3.98 21.7 -5 20 C-5.99 20.33 -6.98 20.66 -8 21 C-8.33 18.69 -8.66 16.38 -9 14 C-7.865625 13.62875 -6.73125 13.2575 -5.5625 12.875 C-3.6154124 12.12186972 -3.6154124 12.12186972 -2 11 C-1.08885 8.03344954 -1.08885 8.03344954 -1 5 C-0.34 4.01 0.32 3.02 1 2 C0.67 1.34 0.34 0.68 0 0 Z " fill="#A8A7AA" transform="translate(58,67)"/>
<path d="M0 0 C0.33 2.97 0.66 5.94 1 9 C2.32 8.67 3.64 8.34 5 8 C5 8.66 5 9.32 5 10 C5.66 10 6.32 10 7 10 C7.33 9.34 7.66 8.68 8 8 C8.33 9.65 8.66 11.3 9 13 C3.06 13 -2.88 13 -9 13 C-9.99 10.36 -10.98 7.72 -12 5 C-11.21625 4.896875 -10.4325 4.79375 -9.625 4.6875 C-6.66954819 4.22404978 -6.66954819 4.22404978 -5 1 C-2 0 -2 0 0 0 Z " fill="#9E9BA1" transform="translate(232,89)"/>
<path d="M0 0 C1.98 0 3.96 0 6 0 C6 5.28 6 10.56 6 16 C1.05 16.495 1.05 16.495 -4 17 C-3.67 15.68 -3.34 14.36 -3 13 C-3.66 13 -4.32 13 -5 13 C-4.67 12.34 -4.34 11.68 -4 11 C-3.34 11 -2.68 11 -2 11 C-2 8.53721199 -2.85452863 7.14775881 -4 5 C-3.34 5 -2.68 5 -2 5 C-1.34 3.35 -0.68 1.7 0 0 Z " fill="#C6C6C6" transform="translate(353,18)"/>
<path d="M0 0 C3.63 0 7.26 0 11 0 C15.09561647 8.38770162 16.83443077 15.66791631 17 25 C15.68 25 14.36 25 13 25 C13.875 18.25 13.875 18.25 15 16 C14.4225 15.773125 13.845 15.54625 13.25 15.3125 C10.44661024 13.67718931 8.99557846 11.52773272 7 9 C6.34 9 5.68 9 5 9 C4.67 6.69 4.34 4.38 4 2 C2.68 2 1.36 2 0 2 C0 1.34 0 0.68 0 0 Z " fill="#C5C5C5" transform="translate(140,18)"/>
<path d="M0 0 C14.52 0 29.04 0 44 0 C43.67 0.99 43.34 1.98 43 3 C29.14 3 15.28 3 1 3 C0.67 2.01 0.34 1.02 0 0 Z " fill="#99999A" transform="translate(78,15)"/>
<path d="M0 0 C0.99 0.66 1.98 1.32 3 2 C2.38722388 4.96175123 1.74627478 6.38058783 0 9 C0.99 9.33 1.98 9.66 3 10 C4.6875 11.4375 4.6875 11.4375 6 13 C6 13.66 6 14.32 6 15 C0.72 15 -4.56 15 -10 15 C-9.01 14.67 -8.02 14.34 -7 14 C-7 13.34 -7 12.68 -7 12 C-7.66 12 -8.32 12 -9 12 C-8.34 10.35 -7.68 8.7 -7 7 C-6.34 7 -5.68 7 -5 7 C-4.731875 6.401875 -4.46375 5.80375 -4.1875 5.1875 C-3.01506533 3.02775192 -1.80630718 1.64209744 0 0 Z " fill="#999B9F" transform="translate(205,87)"/>
<path d="M0 0 C0.33 0 0.66 0 1 0 C1.70147833 3.41395062 2.38372236 6.83146969 3.0625 10.25 C3.26166016 11.21808594 3.46082031 12.18617187 3.66601562 13.18359375 C3.84970703 14.11816406 4.03339844 15.05273438 4.22265625 16.015625 C4.39547119 16.87446289 4.56828613 17.73330078 4.74633789 18.61816406 C5.00554788 21.05209351 4.75084609 22.68898463 4 25 C3.34 24.34 2.68 23.68 2 23 C-0.60280568 23.32041397 -0.60280568 23.32041397 -3 24 C-3.1754368 18.49567039 -2.5274161 13.46337653 -1.5 8.0625 C-1.35691406 7.28326172 -1.21382813 6.50402344 -1.06640625 5.70117188 C-0.71645276 3.7997579 -0.35900335 1.89972607 0 0 Z " fill="#0E0D0D" transform="translate(274,47)"/>
<path d="M0 0 C2.31 0 4.62 0 7 0 C6.88501733 2.20887757 6.75756495 4.41710787 6.625 6.625 C6.55539062 7.85476562 6.48578125 9.08453125 6.4140625 10.3515625 C6.0185513 13.83653855 5.23738151 16.73049601 4 20 C3.34 19.67 2.68 19.34 2 19 C1.3671875 16.015625 1.3671875 16.015625 0.875 12.25 C0.70742188 11.01765625 0.53984375 9.7853125 0.3671875 8.515625 C0.0662738 5.63453634 -0.07723474 2.89078586 0 0 Z " fill="#010101" transform="translate(271,139)"/>
<path d="M0 0 C3.3 0 6.6 0 10 0 C9.34 0.66 8.68 1.32 8 2 C5.875 1.625 5.875 1.625 4 1 C4 1.99 4 2.98 4 4 C4.66 4.33 5.32 4.66 6 5 C5.65066406 5.47050781 5.30132812 5.94101563 4.94140625 6.42578125 C4.48636719 7.04839844 4.03132812 7.67101562 3.5625 8.3125 C3.11003906 8.92738281 2.65757812 9.54226562 2.19140625 10.17578125 C0.82663692 12.09677101 0.82663692 12.09677101 0 15 C-3.0625 16.1875 -3.0625 16.1875 -6 17 C-4.33846988 11.14340094 -2.52958084 5.5409866 0 0 Z " fill="#69686B" transform="translate(223,109)"/>
<path d="M0 0 C4.29 0 8.58 0 13 0 C12 3 12 3 9.4375 4.3125 C8.633125 4.869375 7.82875 5.42625 7 6 C6.95834237 7.99956611 6.95834237 10.00043389 7 12 C5.00390625 13.6875 5.00390625 13.6875 3 15 C2.49363393 13.25183142 1.99515381 11.50137737 1.5 9.75 C1.2215625 8.77546875 0.943125 7.8009375 0.65625 6.796875 C0 4 0 4 0 0 Z " fill="#6D6D6F" transform="translate(247,109)"/>
<path d="M0 0 C0.66 0.99 1.32 1.98 2 3 C2.66 3 3.32 3 4 3 C4 8.94 4 14.88 4 21 C2.02 21.66 0.04 22.32 -2 23 C-2.33 22.34 -2.66 21.68 -3 21 C-1.68 19.02 -0.36 17.04 1 15 C-0.32 15.33 -1.64 15.66 -3 16 C-2.690625 15.443125 -2.38125 14.88625 -2.0625 14.3125 C-0.94238179 11.87459567 -0.43962636 9.63775814 0 7 C-0.99 6.67 -1.98 6.34 -3 6 C-1.125 1.125 -1.125 1.125 0 0 Z " fill="#B9B7BA" transform="translate(337,41)"/>
<path d="M0 0 C0.33 0.66 0.66 1.32 1 2 C0.0625 4.125 0.0625 4.125 -1 6 C-1.66 6 -2.32 6 -3 6 C-2.87625 7.11375 -2.87625 7.11375 -2.75 8.25 C-3.07105184 11.78157027 -4.35265617 12.76630364 -7 15 C-7.33 13.35 -7.66 11.7 -8 10 C-8.66 10 -9.32 10 -10 10 C-10 10.66 -10 11.32 -10 12 C-10.99 12.33 -11.98 12.66 -13 13 C-12.67 9.04 -12.34 5.08 -12 1 C-11.01 1 -10.02 1 -9 1 C-8.67 2.32 -8.34 3.64 -8 5 C-4.75791433 4.64950425 -3.38472296 4.43778819 -1.1875 1.9375 C-0.795625 1.298125 -0.40375 0.65875 0 0 Z " fill="#B0B0B1" transform="translate(62,43)"/>
<path d="M0 0 C3.63 0 7.26 0 11 0 C9 4 9 4 6.875 4.75 C5.946875 4.87375 5.946875 4.87375 5 5 C4.79375 6.11375 4.5875 7.2275 4.375 8.375 C3 12 3 12 -0.125 13.4375 C-1.548125 13.7159375 -1.548125 13.7159375 -3 14 C-3.33 13.34 -3.66 12.68 -4 12 C-3.34 12 -2.68 12 -2 12 C-1.34 8.04 -0.68 4.08 0 0 Z " fill="#6D6C6E" transform="translate(284,109)"/>
<path d="M0 0 C1.12591553 0.00523682 2.25183105 0.01047363 3.41186523 0.01586914 C4.62680664 0.0190918 5.84174805 0.02231445 7.09350586 0.02563477 C8.37290039 0.03401367 9.65229492 0.04239258 10.97045898 0.05102539 C12.2537207 0.05553711 13.53698242 0.06004883 14.85913086 0.06469727 C18.04211921 0.07652994 21.22501661 0.09301471 24.40795898 0.11352539 C24.07795898 1.10352539 23.74795898 2.09352539 23.40795898 3.11352539 C11.03295898 3.60852539 11.03295898 3.60852539 -1.59204102 4.11352539 C-1.59204102 3.45352539 -1.59204102 2.79352539 -1.59204102 2.11352539 C-2.25204102 1.78352539 -2.91204102 1.45352539 -3.59204102 1.11352539 C-2.59204102 0.11352539 -2.59204102 0.11352539 0 0 Z " fill="#989797" transform="translate(263.592041015625,14.886474609375)"/>
<path d="M0 0 C0.33 0.66 0.66 1.32 1 2 C0.34 2.66 -0.32 3.32 -1 4 C-0.67 4.99 -0.34 5.98 0 7 C0.99 6.34 1.98 5.68 3 5 C2.625 6.9375 2.625 6.9375 2 9 C1.01 9.495 1.01 9.495 0 10 C0.33 10.99 0.66 11.98 1 13 C2.58367747 12.85795259 4.16693318 12.71119847 5.75 12.5625 C6.63171875 12.48128906 7.5134375 12.40007813 8.421875 12.31640625 C10.69350452 12.03761535 12.79851823 11.61209423 15 11 C15.33 11.99 15.66 12.98 16 14 C13.04160645 14.02689449 10.08345573 14.04678741 7.125 14.0625 C5.86236328 14.07506836 5.86236328 14.07506836 4.57421875 14.08789062 C3.76855469 14.09111328 2.96289062 14.09433594 2.1328125 14.09765625 C1.38918457 14.10289307 0.64555664 14.10812988 -0.12060547 14.11352539 C-2 14 -2 14 -4 13 C-4 11.35 -4 9.7 -4 8 C-4.99 7.67 -5.98 7.34 -7 7 C-6.01 6.67 -5.02 6.34 -4 6 C-3.65657551 4.66923011 -3.32380126 3.33568021 -3 2 C-2.01 1.34 -1.02 0.68 0 0 Z " fill="#B8B7BA" transform="translate(343,22)"/>
<path d="M0 0 C0.66 1.32 1.32 2.64 2 4 C1.01 5.485 1.01 5.485 0 7 C0.66 7 1.32 7 2 7 C1.34 8.65 0.68 10.3 0 12 C-3.96 12 -7.92 12 -12 12 C-12.33 11.01 -12.66 10.02 -13 9 C-9.375 6 -9.375 6 -6 6 C-6.33 7.32 -6.66 8.64 -7 10 C-6.01 8.68 -5.02 7.36 -4 6 C-3.34 6.33 -2.68 6.66 -2 7 C-1.34 4.69 -0.68 2.38 0 0 Z " fill="#9C9CA0" transform="translate(46,90)"/>
<path d="M0 0 C7.92 0 15.84 0 24 0 C24.33 0.66 24.66 1.32 25 2 C22.33821779 3.3308911 20.31260604 3.11268993 17.3359375 3.09765625 C16.21445313 3.09443359 15.09296875 3.09121094 13.9375 3.08789062 C12.761875 3.07951172 11.58625 3.07113281 10.375 3.0625 C9.19164063 3.05798828 8.00828125 3.05347656 6.7890625 3.04882812 C3.85932493 3.03701467 0.92968728 3.02054258 -2 3 C-1.34 2.67 -0.68 2.34 0 2 C0 1.34 0 0.68 0 0 Z " fill="#99989A" transform="translate(99,48)"/>
<path d="M0 0 C-0.350625 0.94875 -0.70125 1.8975 -1.0625 2.875 C-2.35026777 5.87060172 -2.35026777 5.87060172 -1 8 C-2.175625 9.1446875 -2.175625 9.1446875 -3.375 10.3125 C-6.07257717 12.90891805 -6.07257717 12.90891805 -8 16 C-8 13.05625477 -7.88236731 10.34583201 -7.5625 7.4375 C-7.48128906 6.67308594 -7.40007812 5.90867187 -7.31640625 5.12109375 C-7 3 -7 3 -6 0 C-3.50907189 -1.24546405 -2.58919267 -0.7767578 0 0 Z " fill="#BFC1C0" transform="translate(226,24)"/>
<path d="M0 0 C2.24658203 -0.34057617 2.24658203 -0.34057617 5.0078125 -0.29296875 C5.99394531 -0.28330078 6.98007813 -0.27363281 7.99609375 -0.26367188 C9.02863281 -0.23853516 10.06117187 -0.21339844 11.125 -0.1875 C12.68541016 -0.16719727 12.68541016 -0.16719727 14.27734375 -0.14648438 C16.85207627 -0.11105228 19.4257833 -0.06165221 22 0 C22 0.99 22 1.98 22 3 C14.08 3 6.16 3 -2 3 C-1.34 2.01 -0.68 1.02 0 0 Z " fill="#969495" transform="translate(99,81)"/>
<path d="M0 0 C6.93 0 13.86 0 21 0 C21 0.99 21 1.98 21 3 C19.72382812 3.06058594 18.44765625 3.12117188 17.1328125 3.18359375 C15.46352984 3.26799568 13.79425963 3.35264386 12.125 3.4375 C11.28324219 3.47681641 10.44148438 3.51613281 9.57421875 3.55664062 C8.76855469 3.59853516 7.96289062 3.64042969 7.1328125 3.68359375 C6.01737061 3.73858032 6.01737061 3.73858032 4.87939453 3.79467773 C2.91135688 3.89955865 2.91135688 3.89955865 1 5 C0.67 3.35 0.34 1.7 0 0 Z " fill="#949493" transform="translate(17,15)"/>
<path d="M0 0 C0.87454834 0.00523682 1.74909668 0.01047363 2.65014648 0.01586914 C3.59438477 0.0190918 4.53862305 0.02231445 5.51147461 0.02563477 C6.50469727 0.03401367 7.49791992 0.04239258 8.52124023 0.05102539 C9.51833008 0.05553711 10.51541992 0.06004883 11.54272461 0.06469727 C14.01478872 0.07652532 16.48673541 0.0930069 18.95874023 0.11352539 C18.62874023 1.76352539 18.29874023 3.41352539 17.95874023 5.11352539 C17.62874023 4.45352539 17.29874023 3.79352539 16.95874023 3.11352539 C11.01874023 3.44352539 5.07874023 3.77352539 -1.04125977 4.11352539 C-1.04125977 3.45352539 -1.04125977 2.79352539 -1.04125977 2.11352539 C-1.70125977 1.78352539 -2.36125977 1.45352539 -3.04125977 1.11352539 C-2.04125977 0.11352539 -2.04125977 0.11352539 0 0 Z " fill="#8E8D8E" transform="translate(223.041259765625,14.886474609375)"/>
<path d="M0 0 C6.93 0 13.86 0 21 0 C21.33 0.66 21.66 1.32 22 2 C21.34 2 20.68 2 20 2 C19.67 2.99 19.34 3.98 19 5 C19 4.34 19 3.68 19 3 C13.06 3 7.12 3 1 3 C0.67 2.01 0.34 1.02 0 0 Z " fill="#969695" transform="translate(132,15)"/>
<path d="M0 0 C5.61 0 11.22 0 17 0 C14 5 14 5 11.8125 5.8125 C11.214375 5.874375 10.61625 5.93625 10 6 C10 5.01 10 4.02 10 3 C9.37351562 3.08378906 8.74703125 3.16757812 8.1015625 3.25390625 C7.28429687 3.35574219 6.46703125 3.45757812 5.625 3.5625 C4.81289062 3.66691406 4.00078125 3.77132812 3.1640625 3.87890625 C1 4 1 4 -1 3 C-0.67 2.01 -0.34 1.02 0 0 Z " fill="#BAB9BB" transform="translate(97,51)"/>
<path d="M0 0 C6.6 0 13.2 0 20 0 C19.67 0.99 19.34 1.98 19 3 C13.06 3 7.12 3 1 3 C0.67 2.01 0.34 1.02 0 0 Z " fill="#939493" transform="translate(192,15)"/>
<path d="M0 0 C6.6 0 13.2 0 20 0 C19.67 0.99 19.34 1.98 19 3 C13.06 3 7.12 3 1 3 C0.67 2.01 0.34 1.02 0 0 Z " fill="#999897" transform="translate(162,15)"/>
<path d="M0 0 C6.6 0 13.2 0 20 0 C19.67 0.99 19.34 1.98 19 3 C13.06 3 7.12 3 1 3 C0.67 2.01 0.34 1.02 0 0 Z " fill="#989999" transform="translate(54,15)"/>
<path d="M0 0 C0.0810206 2.10353495 0.13919907 4.20795952 0.1875 6.3125 C0.22230469 7.48425781 0.25710937 8.65601563 0.29296875 9.86328125 C0 13 0 13 -1.51171875 14.91796875 C-2.00285156 15.27503906 -2.49398437 15.63210937 -3 16 C-3.66 15.67 -4.32 15.34 -5 15 C-4.67 12.69 -4.34 10.38 -4 8 C-3.34 8 -2.68 8 -2 8 C-2 7.34 -2 6.68 -2 6 C-3.32 5.67 -4.64 5.34 -6 5 C-1.125 0 -1.125 0 0 0 Z " fill="#B8B6B9" transform="translate(181,49)"/>
<path d="M0 0 C0.33 0.99 0.66 1.98 1 3 C2.32 2.67 3.64 2.34 5 2 C5 2.66 5 3.32 5 4 C5.66 4 6.32 4 7 4 C7.33 3.34 7.66 2.68 8 2 C8.33 3.65 8.66 5.3 9 7 C3.39 7 -2.22 7 -8 7 C-8 6.67 -8 6.34 -8 6 C-6.8553125 5.9071875 -6.8553125 5.9071875 -5.6875 5.8125 C-2.76948191 5.23064738 -2.76948191 5.23064738 -1.1875 2.4375 C-0.795625 1.633125 -0.40375 0.82875 0 0 Z " fill="#99979A" transform="translate(232,95)"/>
<path d="M0 0 C3.96 0 7.92 0 12 0 C12 0.99 12 1.98 12 3 C11.01 3 10.02 3 9 3 C8.67 3.99 8.34 4.98 8 6 C7.34 6.66 6.68 7.32 6 8 C5.34 6.68 4.68 5.36 4 4 C2.68 4 1.36 4 0 4 C0 2.68 0 1.36 0 0 Z " fill="#C6C6C6" transform="translate(228,18)"/>
<path d="M0 0 C1.4606285 2.64738916 2 3.89448334 2 7 C2.33 7.99 2.66 8.98 3 10 C2.525625 10.763125 2.05125 11.52625 1.5625 12.3125 C-0.26215654 14.91434187 -0.26215654 14.91434187 0.0625 18 C-0.01796574 21.86235558 -1.40906363 23.2471301 -4 26 C-3.38641858 17.19828026 -1.70450615 8.64045258 0 0 Z " fill="#AEACB1" transform="translate(257,44)"/>
<path d="M0 0 C1.6875 2.25 1.6875 2.25 1.6875 5.25 C0.06331255 5.33090971 -1.56201745 5.38914995 -3.1875 5.4375 C-4.09242188 5.47230469 -4.99734375 5.50710937 -5.9296875 5.54296875 C-7.10917969 5.39794922 -7.10917969 5.39794922 -8.3125 5.25 C-8.9725 4.26 -9.6325 3.27 -10.3125 2.25 C-8.9925 2.25 -7.6725 2.25 -6.3125 2.25 C-6.6425 1.26 -6.9725 0.27 -7.3125 -0.75 C-3.95176486 -1.87024505 -2.90905552 -2.20144742 0 0 Z " fill="#9B9A9D" transform="translate(338.3125,96.75)"/>
<path d="M0 0 C2.31 0 4.62 0 7 0 C6.67 0.99 6.34 1.98 6 3 C5.01 3 4.02 3 3 3 C2.01 4.485 2.01 4.485 1 6 C1.33 6.99 1.66 7.98 2 9 C1.401875 9.144375 0.80375 9.28875 0.1875 9.4375 C-1.56150404 9.8872439 -3.28677023 10.42892341 -5 11 C-4.51428134 6.62853208 -3.16325079 4.9591701 0 2 C0 1.34 0 0.68 0 0 Z " fill="#B8B4B8" transform="translate(169,48)"/>
<path d="M0 0 C5.94 0 11.88 0 18 0 C17.01 1.485 17.01 1.485 16 3 C13.61435923 2.42415568 11.33317216 1.77772405 9 1 C9 1.66 9 2.32 9 3 C6.08517222 3.80967438 4.53886783 4.21845993 1.6875 3.0625 C1.130625 2.711875 0.57375 2.36125 0 2 C0 1.34 0 0.68 0 0 Z " fill="#727375" transform="translate(163,109)"/>
<path d="M0 0 C0.66 0.66 1.32 1.32 2 2 C1.625 4.625 1.625 4.625 1 7 C0.34 6.67 -0.32 6.34 -1 6 C-2.32 6.99 -3.64 7.98 -5 9 C-5.66 7.68 -6.32 6.36 -7 5 C-4.63707344 2.47411298 -3.33537489 1.11179163 0 0 Z " fill="#B7B7B7" transform="translate(38,39)"/>
<path d="M0 0 C3.96 0 7.92 0 12 0 C12 0.99 12 1.98 12 3 C5.375 6 5.375 6 2 6 C2.33 4.35 2.66 2.7 3 1 C2.01 1.33 1.02 1.66 0 2 C0 1.34 0 0.68 0 0 Z " fill="#C9C8CC" transform="translate(336,18)"/>
<path d="M0 0 C2.97 0 5.94 0 9 0 C4.25 5.875 4.25 5.875 2 7 C1.34 7.99 0.68 8.98 0 10 C0 6.7 0 3.4 0 0 Z " fill="#C7C6C5" transform="translate(163,18)"/>
<path d="M0 0 C2 0 4 0 6 0 C5.34 2.31 4.68 4.62 4 7 C2.68 7.33 1.36 7.66 0 8 C-0.66 6.02 -1.32 4.04 -2 2 C-1.34 1.34 -0.68 0.68 0 0 Z " fill="#676568" transform="translate(233,115)"/>
<path d="M0 0 C1.79244141 0.01740234 1.79244141 0.01740234 3.62109375 0.03515625 C5.41740234 0.04869141 5.41740234 0.04869141 7.25 0.0625 C8.17683594 0.07410156 9.10367187 0.08570313 10.05859375 0.09765625 C10.38859375 0.75765625 10.71859375 1.41765625 11.05859375 2.09765625 C7.63626403 3.23843282 4.97186158 3.19580742 1.37109375 3.16015625 C-0.39814453 3.14662109 -0.39814453 3.14662109 -2.203125 3.1328125 C-3.10675781 3.12121094 -4.01039063 3.10960937 -4.94140625 3.09765625 C-3.44984649 0.11453674 -3.44984649 0.11453674 0 0 Z " fill="#949494" transform="translate(350.94140625,14.90234375)"/>
<path d="M0 0 C0.66 0.66 1.32 1.32 2 2 C1.34 2 0.68 2 0 2 C-0.33 4.97 -0.66 7.94 -1 11 C-2.65 11.33 -4.3 11.66 -6 12 C-5.59791618 6.37082652 -3.71069698 3.99613521 0 0 Z " fill="#C3C2C5" transform="translate(98,32)"/>
<path d="M0 0 C0.66 0.99 1.32 1.98 2 3 C3.32 2.67 4.64 2.34 6 2 C6.99 3.485 6.99 3.485 8 5 C6.88625 5.0825 5.7725 5.165 4.625 5.25 C0.94246056 5.57873787 0.94246056 5.57873787 -0.4375 8.0625 C-0.7159375 9.0215625 -0.7159375 9.0215625 -1 10 C-1.66 9.01 -2.32 8.02 -3 7 C-1.59459459 1.59459459 -1.59459459 1.59459459 0 0 Z " fill="#AFAEAD" transform="translate(270,67)"/>
<path d="M0 0 C2 2 2 2 2.1953125 3.9453125 C2.13020833 5.96354167 2.06510417 7.98177083 2 10 C1.01 10.495 1.01 10.495 0 11 C-1.5 9.8125 -1.5 9.8125 -3 8 C-3.1875 5.3125 -3.1875 5.3125 -3 3 C-2.01 2.67 -1.02 2.34 0 2 C0 1.34 0 0.68 0 0 Z " fill="#C8C8C8" transform="translate(35,22)"/>
<path d="M0 0 C0.66 0.66 1.32 1.32 2 2 C2.66 1.67 3.32 1.34 4 1 C6.125 1.4375 6.125 1.4375 8 2 C6.95125002 4.62187494 6.35068687 5.79371361 3.875 7.25 C3.25625 7.4975 2.6375 7.745 2 8 C2 7.34 2 6.68 2 6 C1.34 6 0.68 6 0 6 C0 4.02 0 2.04 0 0 Z " fill="#AFAEB2" transform="translate(79,71)"/>
<path d="M0 0 C2.86724686 0.57344937 3.8614515 0.8614515 6 3 C6.33 2.34 6.66 1.68 7 1 C7 2.32 7 3.64 7 5 C2.38 5 -2.24 5 -7 5 C-7 4.67 -7 4.34 -7 4 C-6.030625 3.71125 -5.06125 3.4225 -4.0625 3.125 C-0.89335797 2.35785318 -0.89335797 2.35785318 0 0 Z " fill="#98989B" transform="translate(295,97)"/>
<path d="M0 0 C3.34570207 0.46147615 5.4966613 1.76487616 8 4 C8 4.66 8 5.32 8 6 C4.04 6 0.08 6 -4 6 C-4 5.67 -4 5.34 -4 5 C-2.02 5 -0.04 5 2 5 C2 4.01 2 3.02 2 2 C1.01 1.67 0.02 1.34 -1 1 C-0.67 0.67 -0.34 0.34 0 0 Z " fill="#9B9B9C" transform="translate(173,96)"/>
<path d="M0 0 C0 1.65 0 3.3 0 5 C-1.98 5.66 -3.96 6.32 -6 7 C-6.33 5.35 -6.66 3.7 -7 2 C-4 0 -4 0 0 0 Z " fill="#CAC8C9" transform="translate(287,18)"/>
<path d="M0 0 C1.4540625 0.0309375 1.4540625 0.0309375 2.9375 0.0625 C1.32481308 2.77474618 -0.31151874 5.43602812 -2.0625 8.0625 C-2.7225 8.0625 -3.3825 8.0625 -4.0625 8.0625 C-4.10491723 5.72955225 -4.10342937 3.39547433 -4.0625 1.0625 C-3.0625 0.0625 -3.0625 0.0625 0 0 Z " fill="#C1C1C0" transform="translate(23.0625,17.9375)"/>
<path d="M0 0 C-0.33 2.64 -0.66 5.28 -1 8 C-2.98 8 -4.96 8 -7 8 C-5.9363919 4.72054168 -4.1945074 0 0 0 Z " fill="#98989A" transform="translate(266,94)"/>
<path d="M0 0 C3.63 0 7.26 0 11 0 C10.67 0.66 10.34 1.32 10 2 C9.01 1.67 8.02 1.34 7 1 C6.34 2.32 5.68 3.64 5 5 C3.68 4.67 2.36 4.34 1 4 C0.67 2.68 0.34 1.36 0 0 Z " fill="#ACA9AE" transform="translate(100,84)"/>
<path d="M0 0 C3.3 0 6.6 0 10 0 C9.34 0.66 8.68 1.32 8 2 C5.875 1.625 5.875 1.625 4 1 C4 2.98 4 4.96 4 7 C2.35 5.35 0.7 3.7 -1 2 C-0.67 1.34 -0.34 0.68 0 0 Z " fill="#747275" transform="translate(223,109)"/>
<path d="M0 0 C0.66 0 1.32 0 2 0 C2 3.96 2 7.92 2 12 C-0.92509086 8.09987886 -1.47535095 6.61691161 -2 2 C-1.34 2 -0.68 2 0 2 C0 1.34 0 0.68 0 0 Z " fill="#19181A" transform="translate(161,37)"/>
<path d="M0 0 C3.3 0 6.6 0 10 0 C10 0.99 10 1.98 10 3 C7.03 3 4.06 3 1 3 C0.67 2.01 0.34 1.02 0 0 Z " fill="#979797" transform="translate(111,81)"/>
<path d="M0 0 C6.27 0 12.54 0 19 0 C19 0.33 19 0.66 19 1 C14.38 1 9.76 1 5 1 C5 1.66 5 2.32 5 3 C3.35 2.67 1.7 2.34 0 2 C0 1.34 0 0.68 0 0 Z " fill="#999A9A" transform="translate(192,15)"/>
<path d="M0 0 C0 1.33333333 0 2.66666667 0 4 C1.65 4.33 3.3 4.66 5 5 C5 5.33 5 5.66 5 6 C3.35 6 1.7 6 0 6 C0 6.99 0 7.98 0 9 C-0.66 9 -1.32 9 -2 9 C-2.33 6.69 -2.66 4.38 -3 2 C-2.01 1.34 -1.02 0.68 0 0 Z " fill="#98989A" transform="translate(267,84)"/>
<path d="M0 0 C0.66 0.33 1.32 0.66 2 1 C1.8125 3.375 1.8125 3.375 1 6 C-1.5625 7.3125 -1.5625 7.3125 -4 8 C-4.25 5.6875 -4.25 5.6875 -4 3 C-2 1.1875 -2 1.1875 0 0 Z " fill="#A8A9AB" transform="translate(253,88)"/>
<path d="M0 0 C0.33 1.32 0.66 2.64 1 4 C2.98 4 4.96 4 7 4 C7 4.66 7 5.32 7 6 C5.35 6.66 3.7 7.32 2 8 C1.67 7.01 1.34 6.02 1 5 C0.01 4.67 -0.98 4.34 -2 4 C-1.34 2.68 -0.68 1.36 0 0 Z " fill="#5A5A5C" transform="translate(266,117)"/>
<path d="M0 0 C2.97 0 5.94 0 9 0 C8.67 1.32 8.34 2.64 8 4 C5.36 3.67 2.72 3.34 0 3 C0 2.01 0 1.02 0 0 Z " fill="#777779" transform="translate(323,109)"/>
<path d="M0 0 C0.82638376 2.89234315 1 4.88742431 1 8 C0.34 8 -0.32 8 -1 8 C-1.33 8.66 -1.66 9.32 -2 10 C-2 9.01 -2 8.02 -2 7 C-2.62599617 5.31763529 -3.28752268 3.6476038 -4 2 C-2.68 1.34 -1.36 0.68 0 0 Z " fill="#BEBDBF" transform="translate(65,45)"/>
<path d="M0 0 C3.3 0 6.6 0 10 0 C9.67 1.65 9.34 3.3 9 5 C8.67 4.34 8.34 3.68 8 3 C6.845 2.835 5.69 2.67 4.5 2.5 C3.345 2.335 2.19 2.17 1 2 C0.67 1.34 0.34 0.68 0 0 Z " fill="#999999" transform="translate(232,15)"/>
<path d="M0 0 C3.96 0 7.92 0 12 0 C12 0.66 12 1.32 12 2 C10.329375 2.2165625 10.329375 2.2165625 8.625 2.4375 C5.17857953 2.78372035 5.17857953 2.78372035 3 4 C3 3.34 3 2.68 3 2 C2.01 2.33 1.02 2.66 0 3 C0 2.01 0 1.02 0 0 Z " fill="#747376" transform="translate(193,109)"/>
<path d="M0 0 C0.66 0.99 1.32 1.98 2 3 C2.66 3 3.32 3 4 3 C3.67 3.99 3.34 4.98 3 6 C1.02 6.33 -0.96 6.66 -3 7 C-3.33 6.01 -3.66 5.02 -4 4 C-2.68 2.68 -1.36 1.36 0 0 Z " fill="#A7A5A9" transform="translate(226,95)"/>
<path d="M0 0 C3.63 0 7.26 0 11 0 C10.67 1.65 10.34 3.3 10 5 C9.34 5 8.68 5 8 5 C8 4.01 8 3.02 8 2 C5.36 2 2.72 2 0 2 C0 1.34 0 0.68 0 0 Z " fill="#D0D0CF" transform="translate(140,18)"/>
<path d="M0 0 C0.33 0 0.66 0 1 0 C1 3.3 1 6.6 1 10 C-0.32 10 -1.64 10 -3 10 C-2.21302675 6.58978257 -1.12880057 3.31114834 0 0 Z " fill="#AFAFB1" transform="translate(293,54)"/>
<path d="M0 0 C0.66 0 1.32 0 2 0 C2 1.65 2 3.3 2 5 C1.34 5 0.68 5 0 5 C0 5.66 0 6.32 0 7 C-0.99 7.33 -1.98 7.66 -3 8 C-3.33 7.01 -3.66 6.02 -4 5 C-3.34 5 -2.68 5 -2 5 C-2 4.34 -2 3.68 -2 3 C-1.34 3 -0.68 3 0 3 C0 2.01 0 1.02 0 0 Z " fill="#9C9C9F" transform="translate(36,89)"/>
<path d="M0 0 C0.66 0 1.32 0 2 0 C1.67 1.32 1.34 2.64 1 4 C1.99 4.33 2.98 4.66 4 5 C-0.29 5 -4.58 5 -9 5 C-9 4.67 -9 4.34 -9 4 C-7.88625 3.896875 -6.7725 3.79375 -5.625 3.6875 C-4.42875 3.460625 -3.2325 3.23375 -2 3 C-1.34 2.01 -0.68 1.02 0 0 Z " fill="#A8A8A8" transform="translate(117,64)"/>
<path d="M0 0 C0.33 0 0.66 0 1 0 C2.61050328 9.01531729 2.61050328 9.01531729 0.0625 13.125 C-0.618125 13.74375 -1.29875 14.3625 -2 15 C-1.03644647 4.44191344 -1.03644647 4.44191344 0 0 Z " fill="#9FA0A1" transform="translate(255,55)"/>
<path d="M0 0 C-2 2 -2 2 -3.875 2.265625 C-4.57625 2.26046875 -5.2775 2.2553125 -6 2.25 C-6.70125 2.25515625 -7.4025 2.2603125 -8.125 2.265625 C-10 2 -10 2 -12 0 C-3.42857143 -1.28571429 -3.42857143 -1.28571429 0 0 Z " fill="#868887" transform="translate(124,49)"/>
<path d="M0 0 C2.0625 0.4375 2.0625 0.4375 4 1 C4 1.66 4 2.32 4 3 C-0.95 3 -5.9 3 -11 3 C-11 2.67 -11 2.34 -11 2 C-10.28972656 1.93941406 -9.57945312 1.87882812 -8.84765625 1.81640625 C-7.46900391 1.69072266 -7.46900391 1.69072266 -6.0625 1.5625 C-5.14597656 1.48128906 -4.22945313 1.40007813 -3.28515625 1.31640625 C-1.03840268 1.23955024 -1.03840268 1.23955024 0 0 Z " fill="#B2B2B2" transform="translate(355,33)"/>
<path d="M0 0 C2.97 0 5.94 0 9 0 C8.67 0.99 8.34 1.98 8 3 C8 2.34 8 1.68 8 1 C7.21625 1.185625 6.4325 1.37125 5.625 1.5625 C3 2 3 2 1 1 C1 1.66 1 2.32 1 3 C1.66 3 2.32 3 3 3 C2.34 4.32 1.68 5.64 1 7 C0.67 7 0.34 7 0 7 C0 4.69 0 2.38 0 0 Z " fill="#C9C9C9" transform="translate(305,18)"/>
<path d="M0 0 C0.33 0.66 0.66 1.32 1 2 C0.0625 4.125 0.0625 4.125 -1 6 C-1.66 6 -2.32 6 -3 6 C-3.33 7.32 -3.66 8.64 -4 10 C-4.99 10 -5.98 10 -7 10 C-7 8 -7 8 -5.1875 6.125 C-4.465625 5.42375 -3.74375 4.7225 -3 4 C-1.97676564 2.68441297 -0.96873032 1.35622245 0 0 Z " fill="#A8A8AB" transform="translate(62,43)"/>
<path d="M0 0 C0.66 0.33 1.32 0.66 2 1 C2 2.65 2 4.3 2 6 C1.34 6 0.68 6 0 6 C-0.33 6.66 -0.66 7.32 -1 8 C-1.625 5.6875 -1.625 5.6875 -2 3 C-1.34 2.01 -0.68 1.02 0 0 Z " fill="#BABCBB" transform="translate(40,49)"/>
<path d="M0 0 C2 3 2 3 2 6 C1.01 6.33 0.02 6.66 -1 7 C-1.66 6.34 -2.32 5.68 -3 5 C-3 4.01 -3 3.02 -3 2 C-2.01 1.34 -1.02 0.68 0 0 Z " fill="#BFBFBF" transform="translate(154,27)"/>
<path d="M0 0 C0.66 0 1.32 0 2 0 C2 0.66 2 1.32 2 2 C2.66 2 3.32 2 4 2 C3.67 2.99 3.34 3.98 3 5 C2.01 4.67 1.02 4.34 0 4 C-0.33 5.32 -0.66 6.64 -1 8 C-2.2077558 4.37673261 -1.54311128 3.35853631 0 0 Z " fill="#616163" transform="translate(33,115)"/>
<path d="M0 0 C2.31 0 4.62 0 7 0 C5.25 3.875 5.25 3.875 3 5 C2.34 4.01 1.68 3.02 1 2 C0.01 2.495 0.01 2.495 -1 3 C-0.67 2.01 -0.34 1.02 0 0 Z " fill="#727273" transform="translate(34,109)"/>
<path d="M0 0 C0.66 0 1.32 0 2 0 C1.67 2.31 1.34 4.62 1 7 C0.01 7 -0.98 7 -2 7 C-2.33 6.34 -2.66 5.68 -3 5 C-1.6875 2.375 -1.6875 2.375 0 0 Z " fill="#AEAEB1" transform="translate(297,85)"/>
<path d="M0 0 C0.66 0 1.32 0 2 0 C1.67 1.98 1.34 3.96 1 6 C1.66 6 2.32 6 3 6 C2.67 6.99 2.34 7.98 2 9 C1.34 8.67 0.68 8.34 0 8 C0 7.34 0 6.68 0 6 C-0.66 6 -1.32 6 -2 6 C-1.34 4.02 -0.68 2.04 0 0 Z " fill="#B1B0B2" transform="translate(231,79)"/>
<path d="M0 0 C0.66 0.66 1.32 1.32 2 2 C1.625 4.625 1.625 4.625 1 7 C-0.32 6.67 -1.64 6.34 -3 6 C-1.125 1.125 -1.125 1.125 0 0 Z " fill="#C3C3C3" transform="translate(38,39)"/>
<path d="M0 0 C0.99 0.33 1.98 0.66 3 1 C2.67 1.66 2.34 2.32 2 3 C2.33 3.33 2.66 3.66 3 4 C1.68 5.32 0.36 6.64 -1 8 C-2 6 -2 6 -1.0625 2.875 C-0.5365625 1.451875 -0.5365625 1.451875 0 0 Z " fill="#666666" transform="translate(161,113)"/>
<path d="M0 0 C-0.6875 1.9375 -0.6875 1.9375 -2 4 C-4.625 4.75 -4.625 4.75 -7 5 C-7 4.34 -7 3.68 -7 3 C-4.4385343 0.70351351 -3.52032428 0 0 0 Z " fill="#A4A3A7" transform="translate(40,96)"/>
<path d="M0 0 C0.33 0 0.66 0 1 0 C1.22197585 2.10277123 1.42713637 4.20732302 1.625 6.3125 C1.74101563 7.48425781 1.85703125 8.65601562 1.9765625 9.86328125 C2 13 2 13 0 16 C-1.30267176 10.49983036 -0.71033431 5.52967941 0 0 Z " fill="#5A595A" transform="translate(45,56)"/>
<path d="M0 0 C1.98 0 3.96 0 6 0 C6 0.99 6 1.98 6 3 C5.01 3 4.02 3 3 3 C2.67 3.99 2.34 4.98 2 6 C1.34 4.02 0.68 2.04 0 0 Z " fill="#CBCDCC" transform="translate(234,18)"/>
<path d="M0 0 C0.66 0 1.32 0 2 0 C2.66 2.31 3.32 4.62 4 7 C3.01 7.33 2.02 7.66 1 8 C0.67 5.36 0.34 2.72 0 0 Z " fill="#050507" transform="translate(239,92)"/>
<path d="M0 0 C0.66 0.33 1.32 0.66 2 1 C-0.97 4.96 -0.97 4.96 -4 9 C-4.33 8.01 -4.66 7.02 -5 6 C-3.59554165 3.7363436 -1.8032087 1.9791315 0 0 Z " fill="#B0AFB0" transform="translate(205,47)"/>
<path d="M0 0 C0.433125 0.9590625 0.433125 0.9590625 0.875 1.9375 C1.82823451 4.15206079 1.82823451 4.15206079 4 5 C2.02 5.66 0.04 6.32 -2 7 C-1.34 4.69 -0.68 2.38 0 0 Z " fill="#58585A" transform="translate(219,119)"/>
<path d="M0 0 C2.625 -0.1875 2.625 -0.1875 5 0 C5.33 0.99 5.66 1.98 6 3 C3.36 3 0.72 3 -2 3 C-1.34 2.01 -0.68 1.02 0 0 Z " fill="#8D8B8F" transform="translate(99,81)"/>
<path d="M0 0 C2.64779693 0 4.51587793 0.17195931 7 1 C7.33 1.66 7.66 2.32 8 3 C5.36 3 2.72 3 0 3 C0 2.01 0 1.02 0 0 Z " fill="#8C8C8B" transform="translate(270,69)"/>
<path d="M0 0 C0.66 0.66 1.32 1.32 2 2 C1.01 3.32 0.02 4.64 -1 6 C-1.99 5.67 -2.98 5.34 -4 5 C-2.68 3.35 -1.36 1.7 0 0 Z " fill="#B3B0B5" transform="translate(95,66)"/>
<path d="M0 0 C1.1875 1.6875 1.1875 1.6875 2 4 C0.625 6.75 0.625 6.75 -1 9 C-2.10107995 5.69676014 -1.86709271 4.29495231 -1 1 C-0.67 0.67 -0.34 0.34 0 0 Z " fill="#B2B2B4" transform="translate(290,52)"/>
<path d="M0 0 C1.98 0 3.96 0 6 0 C5.67 0.66 5.34 1.32 5 2 C4.01 2 3.02 2 2 2 C1.67 2.99 1.34 3.98 1 5 C0.01 4.67 -0.98 4.34 -2 4 C-1.34 2.68 -0.68 1.36 0 0 Z " fill="#C8C8C7" transform="translate(28,18)"/>
<path d="M0 0 C1.32 0.33 2.64 0.66 4 1 C3.34099246 4.07536854 2.46132217 6.07735566 1 9 C0.67 6.03 0.34 3.06 0 0 Z " fill="#B1B1B3" transform="translate(193,77)"/>
<path d="M0 0 C0.66 0.66 1.32 1.32 2 2 C1.625 4.625 1.625 4.625 1 7 C0.01 7 -0.98 7 -2 7 C-1.34 4.69 -0.68 2.38 0 0 Z " fill="#B7B7B9" transform="translate(179,65)"/>
<path d="M0 0 C2.0625 1.75 2.0625 1.75 4 4 C3.82246387 7.01811422 3.16264785 7.83735215 1 10 C0.67 6.7 0.34 3.4 0 0 Z " fill="#ADABAF" transform="translate(276,52)"/>
<path d="M0 0 C-0.33 1.32 -0.66 2.64 -1 4 C-2.65 4.33 -4.3 4.66 -6 5 C-6 4.34 -6 3.68 -6 3 C-2.53846154 0 -2.53846154 0 0 0 Z " fill="#C3C2C5" transform="translate(111,31)"/>
<path d="M0 0 C0.99 0.33 1.98 0.66 3 1 C2.34 2.98 1.68 4.96 1 7 C0.01 6.34 -0.98 5.68 -2 5 C-1 2 -1 2 0 0 Z " fill="#ADAEAD" transform="translate(237,21)"/>
</svg>
